<svg xmlns="http://www.w3.org/2000/svg" viewBox="0 0 1200 630" role="img" aria-label="Yurii Ochkalov portfolio preview">
  <defs>
    <linearGradient id="accent" x1="0" y1="0" x2="1" y2="1">
      <stop offset="0" stop-color="#14F195"/>
      <stop offset=".58" stop-color="#5EEAD4"/>
      <stop offset="1" stop-color="#F6C343"/>
    </linearGradient>
    <radialGradient id="glow" cx=".68" cy=".38" r=".45">
      <stop offset="0" stop-color="#14F195" stop-opacity=".22"/>
      <stop offset="1" stop-color="#05080A" stop-opacity="0"/>
    </radialGradient>
    <pattern id="grid" width="38" height="38" patternUnits="userSpaceOnUse">
      <path d="M38 0H0v38" fill="none" stroke="#94A3B8" stroke-opacity=".12"/>
    </pattern>
  </defs>
  <rect width="1200" height="630" fill="#05080A"/>
  <rect width="1200" height="630" fill="url(#grid)"/>
  <rect width="1200" height="630" fill="url(#glow)"/>
  <rect x="64" y="58" width="1072" height="514" rx="8" fill="#071012" fill-opacity=".82" stroke="#94A3B8" stroke-opacity=".22"/>
  <rect x="96" y="92" width="74" height="74" rx="8" fill="#0B1214" stroke="#F6C343" stroke-opacity=".55"/>
  <text x="118" y="140" fill="#F6C343" font-family="Inter, Segoe UI, sans-serif" font-size="31" font-weight="800">YO</text>
  <text x="96" y="240" fill="#14F195" font-family="Inter, Segoe UI, sans-serif" font-size="28" font-weight="700">Senior Software Engineer</text>
  <text x="96" y="318" fill="#F4FBF7" font-family="Inter, Segoe UI, sans-serif" font-size="58" font-weight="800">Scalable software systems</text>
  <text x="96" y="386" fill="url(#accent)" font-family="Inter, Segoe UI, sans-serif" font-size="58" font-weight="800">with measurable impact.</text>
  <text x="96" y="456" fill="#8EA39A" font-family="Inter, Segoe UI, sans-serif" font-size="26">Enterprise frontend architecture, full-stack delivery, micro-frontends, data-intensive applications, and AI-assisted engineering.</text>
  <g transform="translate(780 150)">
    <ellipse cx="145" cy="165" rx="170" ry="62" fill="none" stroke="#F6C343" stroke-opacity=".45"/>
    <ellipse cx="145" cy="165" rx="122" ry="42" fill="none" stroke="#14F195" stroke-opacity=".35"/>
    <path d="M145 20 252 82v124l-107 62L38 206V82Z" fill="#0C1719" stroke="#14F195" stroke-opacity=".72"/>
    <path d="m145 20 107 62-107 62L38 82Z" fill="#14F195" fill-opacity=".16"/>
    <path d="M145 144v124M38 82v124M252 82v124" stroke="#5EEAD4" stroke-opacity=".38"/>
    <circle cx="145" cy="144" r="32" fill="#F6C343" fill-opacity=".78"/>
  </g>
</svg>
